# xmcd
#
# Track frame offsets:
#	150
#	21019
#	37973
#	52740
#	74736
#	94140
#	131254
#	150176
#	172919
#	186011
#	208589
#	237407
#	256894
#	278171
#	298110
#	313128
#
# Disc length: 4334 seconds
#
# Revision: 0
# Processed by: cddbd v1.4PL0 Copyright (c) Steve Scherf et al.
# Submitted via: audiograbber 1.80
#
DISCID=d810ec10
DTITLE=Bryan Ferry - World ballads collection
DYEAR=1900
DGENRE=
TTITLE0=Oh yeah
TTITLE1=Carrickfergus
TTITLE2=That's how strong my love
TTITLE3=Jealous guy
TTITLE4=Avalon
TTITLE5=In every dream home a heartache live
TTITLE6=More than this
TTITLE7=This island earth
TTITLE8=Smoke gets in your eyes
TTITLE9=Runing wild
TTITLE10=When she walks in the room
TTITLE11=Slave to love
TTITLE12=No strange delight
TTITLE13=Don't stop the dance
TTITLE14=Rain, rain, rain
TTITLE15=I'll see you again
EXTD=
EXTT0=
EXTT1=
EXTT2=
EXTT3=
EXTT4=
EXTT5=
EXTT6=
EXTT7=
EXTT8=
EXTT9=
EXTT10=
EXTT11=
EXTT12=
EXTT13=
EXTT14=
EXTT15=
PLAYORDER=
